
        <svg xmlns="http://www.w3.org/2000/svg" xmlns:xlink="http://www.w3.org/1999/xlink" version="1.1" width="3352.9411764705883" height="3061.9047359016167" viewBox="0 0 3352.9411764705883 3061.9047359016167">
			
			<g transform="scale(17.647058823529413) translate(10, 10)">
				<defs id="SvgjsDefs1812"/><g id="SvgjsG1813" featureKey="aMgJeN-0" transform="matrix(1.1111111111111112,0,0,1.1111111111111112,29.444444444444443,-5.555555555555555)" fill="#fff"><path xmlns="http://www.w3.org/2000/svg" d="M50,5C25.1,5,5,25.1,5,50s20.1,45,45,45s45-20.1,45-45S74.9,5,50,5z M65.1,59.3l9.4-9.4L65,40.6c-0.5-0.4-0.7-1-0.7-1.6  c0-0.7,0.3-1.3,0.8-1.9c0.4-0.5,1-0.7,1.6-0.7c0,0,0,0,0.1,0c0.7,0,1.3,0.3,1.8,0.8L81.4,50L68.5,62.9c-0.9,0.9-2.5,0.9-3.5,0l0,0  c-0.4-0.4-0.7-1-0.7-1.6C64.3,60.6,64.5,59.9,65.1,59.3z M44,69.7c-0.2,0-0.5-0.1-0.8-0.2c-1.2-0.4-1.9-1.8-1.5-3.2l12-34.4l0,0  c0.2-0.6,0.6-1.1,1.2-1.4c0.3-0.2,0.7-0.2,1-0.2c0.3,0,0.6,0.1,0.9,0.2c1.2,0.4,1.9,1.8,1.5,3.2L46.3,68C46,69,45,69.7,44,69.7z   M34.9,40.6L25.6,50l9.4,9.4c0.5,0.4,0.7,1,0.7,1.6c0,0.7-0.3,1.3-0.8,1.8c-0.5,0.5-1.1,0.8-1.7,0.8c-0.6,0-1.3-0.3-1.7-0.8L18.6,50  l12.9-12.9c0.4-0.5,1-0.7,1.6-0.7c0.7,0,1.3,0.3,1.9,0.8c0.5,0.4,0.7,1,0.7,1.6C35.7,39.5,35.4,40.1,34.9,40.6z"/></g><g id="SvgjsG1814" featureKey="8L6ael-0" transform="matrix(2.239835081076794,0,0,2.239835081076794,-3.628533109033921,108.80082459461603)" fill="#fff"><path d="M11.12 11.12 q0.3 0 0.51 0.21 t0.21 0.51 l0 1.48 q0 0.28 -0.21 0.49 t-0.51 0.21 l-6.58 0 l0 5.12 q0 0.28 -0.2 0.49 t-0.5 0.21 l-1.52 0 q-0.28 0 -0.49 -0.21 t-0.21 -0.49 l0 -7.3 q0 -0.3 0.21 -0.51 t0.49 -0.21 l8.8 0 z M12.02 5 q0.28 0 0.49 0.21 t0.21 0.49 l0 1.46 q0 0.3 -0.21 0.51 t-0.49 0.21 l-9.7 0 q-0.28 0 -0.49 -0.21 t-0.21 -0.51 l0 -1.46 q0 -0.28 0.21 -0.49 t0.49 -0.21 l9.7 0 z M27.156 16.96 q0.3 0 0.5 0.21 t0.2 0.51 l0 1.46 q0 0.28 -0.2 0.49 t-0.5 0.21 l-9.88 0 q-0.28 0 -0.49 -0.21 t-0.21 -0.49 l0 -1.46 q0 -0.3 0.21 -0.51 t0.49 -0.21 l9.88 0 z M17.276 13.86 q-0.28 0 -0.49 -0.21 t-0.21 -0.49 l0 -1.5 q0 -0.28 0.21 -0.49 t0.49 -0.21 l8.98 0 q0.3 0 0.51 0.21 t0.21 0.49 l0 1.5 q0 0.28 -0.21 0.49 t-0.51 0.21 l-8.98 0 z M27.156 5 q0.3 0 0.5 0.21 t0.2 0.49 l0 1.46 q0 0.3 -0.2 0.51 t-0.5 0.21 l-9.88 0 q-0.28 0 -0.49 -0.21 t-0.21 -0.51 l0 -1.46 q0 -0.28 0.21 -0.49 t0.49 -0.21 l9.88 0 z M40.972 5.52 q1.22 0.46 2.2 1.48 q2.1 2.12 2.1 5.41 t-2.1 5.43 q-0.98 1.02 -2.2 1.48 q-1.26 0.52 -2.58 0.52 l-5.66 0 q-0.28 0 -0.49 -0.21 t-0.21 -0.49 l0 -1.44 q0 -0.3 0.21 -0.51 t0.49 -0.21 l5.6 0 q1.78 0 2.89 -1.3 t1.11 -3.26 t-1.11 -3.26 t-2.89 -1.3 l-5.6 0 q-0.28 0 -0.49 -0.21 t-0.21 -0.51 l0 -1.44 q0 -0.28 0.21 -0.49 t0.49 -0.21 l5.66 0 q1.32 0 2.58 0.52 z M60.028000000000006 16.96 q0.3 0 0.5 0.21 t0.2 0.51 l0 1.46 q0 0.28 -0.2 0.49 t-0.5 0.21 l-9.88 0 q-0.28 0 -0.49 -0.21 t-0.21 -0.49 l0 -1.46 q0 -0.3 0.21 -0.51 t0.49 -0.21 l9.88 0 z M50.148 13.86 q-0.28 0 -0.49 -0.21 t-0.21 -0.49 l0 -1.5 q0 -0.28 0.21 -0.49 t0.49 -0.21 l8.98 0 q0.3 0 0.51 0.21 t0.21 0.49 l0 1.5 q0 0.28 -0.21 0.49 t-0.51 0.21 l-8.98 0 z M60.028000000000006 5 q0.3 0 0.5 0.21 t0.2 0.49 l0 1.46 q0 0.3 -0.2 0.51 t-0.5 0.21 l-9.88 0 q-0.28 0 -0.49 -0.21 t-0.21 -0.51 l0 -1.46 q0 -0.28 0.21 -0.49 t0.49 -0.21 l9.88 0 z M77.384 5.32 q0.22 0.3 0.08 0.66 l-5.48 13.54 q-0.08 0.2 -0.26 0.32 t-0.4 0.12 l-1.76 0 q-0.22 0 -0.4 -0.12 t-0.26 -0.32 l-5.48 -13.54 q-0.16 -0.34 0.06 -0.66 t0.58 -0.32 l6.68 0 q0.28 0 0.49 0.21 t0.21 0.51 l0 1.46 q0 0.3 -0.21 0.51 t-0.49 0.21 l-3.36 0 l3.06 7.7 l4.02 -10.16 q0.08 -0.2 0.26 -0.32 t0.4 -0.12 l1.68 0 q0.18 0 0.34 0.09 t0.24 0.23 z"/></g>
			</g>
		</svg>
	